<svg width="20" height="20" viewBox="0 0 20 20" fill="none" xmlns="http://www.w3.org/2000/svg">
<path d="M11.7 18.9583H7.70838C6.35838 18.9583 5.13338 18.4333 4.25005 17.4667C3.36671 16.5083 2.94171 15.2417 3.05838 13.9C3.34171 10.4833 6.35838 7.70833 9.79171 7.70833C12.95 7.70833 15.9334 10.2417 16.4584 13.35C16.7084 14.8333 16.3417 16.2333 15.4417 17.3C14.525 18.3667 13.2 18.9583 11.7 18.9583ZM9.78338 8.95833C6.99171 8.95833 4.53338 11.225 4.30005 14.0083C4.21671 15 4.52505 15.925 5.16671 16.625C5.80838 17.325 6.70838 17.7083 7.70005 17.7083H11.6917C12.8167 17.7083 13.8084 17.275 14.4667 16.5C15.125 15.725 15.3917 14.675 15.2084 13.5583C14.7917 11.025 12.3584 8.95833 9.78338 8.95833Z" fill="white"/>
<path d="M8.72506 6.87499C7.23339 6.87499 6.01672 5.65833 6.01672 4.16666C6.01672 2.67499 7.23339 1.45833 8.72506 1.45833C10.2167 1.45833 11.4334 2.67499 11.4334 4.16666C11.4334 5.65833 10.2251 6.87499 8.72506 6.87499ZM8.72506 2.70833C7.92506 2.70833 7.26672 3.36666 7.26672 4.16666C7.26672 4.96666 7.92506 5.62499 8.72506 5.62499C9.52506 5.62499 10.1834 4.96666 10.1834 4.16666C10.1834 3.36666 9.53339 2.70833 8.72506 2.70833Z" fill="white"/>
<path d="M14.4167 7.87501C13.15 7.87501 12.125 6.85001 12.125 5.58334C12.125 4.31667 13.15 3.29167 14.4167 3.29167C15.6833 3.29167 16.7083 4.31667 16.7083 5.58334C16.7083 6.85001 15.6833 7.87501 14.4167 7.87501ZM14.4167 4.54167C13.8417 4.54167 13.375 5.00834 13.375 5.58334C13.375 6.15834 13.8417 6.62501 14.4167 6.62501C14.9917 6.62501 15.4583 6.15834 15.4583 5.58334C15.4583 5.00834 14.9917 4.54167 14.4167 4.54167Z" fill="white"/>
<path d="M17.5 11.2083C16.4667 11.2083 15.625 10.3667 15.625 9.33333C15.625 8.29999 16.4667 7.45833 17.5 7.45833C18.5333 7.45833 19.375 8.29999 19.375 9.33333C19.375 10.3667 18.5333 11.2083 17.5 11.2083ZM17.5 8.70833C17.1583 8.70833 16.875 8.99166 16.875 9.33333C16.875 9.67499 17.1583 9.95833 17.5 9.95833C17.8417 9.95833 18.125 9.67499 18.125 9.33333C18.125 8.99166 17.8417 8.70833 17.5 8.70833Z" fill="white"/>
<path d="M3.30839 9.54166C2.04172 9.54166 1.01672 8.51666 1.01672 7.25C1.01672 5.98333 2.04172 4.95833 3.30839 4.95833C4.57506 4.95833 5.60006 5.98333 5.60006 7.25C5.60006 8.51666 4.57506 9.54166 3.30839 9.54166ZM3.30839 6.20833C2.73339 6.20833 2.26672 6.675 2.26672 7.25C2.26672 7.825 2.73339 8.29166 3.30839 8.29166C3.88339 8.29166 4.35006 7.825 4.35006 7.25C4.35006 6.675 3.88339 6.20833 3.30839 6.20833Z" fill="white"/>
</svg>
