<svg width="20" height="20" viewBox="0 0 20 20" fill="none" xmlns="http://www.w3.org/2000/svg">
<path d="M10.9836 15.5833C10.0086 15.5833 9.18357 14.9833 8.87523 14.0583L8.2919 12.3333C8.20023 12.0333 7.9669 11.8083 7.68357 11.7167L5.95023 11.1333C5.0169 10.8167 4.4169 9.97499 4.43357 8.99165C4.45023 8.00832 5.0669 7.18333 6.00857 6.89166L12.2836 4.94165C13.0752 4.69999 13.9336 4.90833 14.5169 5.5C15.1002 6.09167 15.3086 6.94166 15.0669 7.73333L13.1169 14.0167C12.8252 14.9583 12.0002 15.575 11.0086 15.5917C11.0002 15.5833 10.9919 15.5833 10.9836 15.5833ZM12.9336 6.08333C12.8336 6.08333 12.7419 6.1 12.6419 6.125L6.35857 8.08332C5.85023 8.24166 5.6669 8.65832 5.6669 9.00832C5.65857 9.34999 5.83357 9.78333 6.33357 9.95L8.0669 10.525C8.73357 10.7417 9.25857 11.2667 9.47523 11.9417L10.0502 13.6583C10.2169 14.1583 10.6086 14.3167 10.9919 14.3333C11.3336 14.3333 11.7586 14.15 11.9169 13.6417L13.8669 7.35833C13.9752 7.00833 13.8836 6.64166 13.6252 6.38333C13.4336 6.18333 13.1919 6.08333 12.9336 6.08333Z" fill="white"/>
<path d="M12.5 18.9583H7.49996C2.97496 18.9583 1.04163 17.025 1.04163 12.5V7.5C1.04163 2.97501 2.97496 1.04167 7.49996 1.04167H12.5C17.025 1.04167 18.9583 2.97501 18.9583 7.5V12.5C18.9583 17.025 17.025 18.9583 12.5 18.9583ZM7.49996 2.29167C3.65829 2.29167 2.29163 3.65834 2.29163 7.5V12.5C2.29163 16.3417 3.65829 17.7083 7.49996 17.7083H12.5C16.3416 17.7083 17.7083 16.3417 17.7083 12.5V7.5C17.7083 3.65834 16.3416 2.29167 12.5 2.29167H7.49996Z" fill="white"/>
</svg>
