<svg width="138" height="33" viewBox="0 0 138 33" fill="none" xmlns="http://www.w3.org/2000/svg">
<path d="M42.128 4.008H49.044C50.556 4.008 51.788 4.176 52.768 4.512C53.748 4.848 54.532 5.296 55.092 5.856C55.652 6.416 56.044 7.088 56.268 7.816C56.492 8.544 56.604 9.328 56.604 10.112C56.604 10.98 56.492 11.792 56.268 12.576C56.044 13.36 55.624 14.06 55.064 14.648C54.504 15.236 53.72 15.712 52.768 16.048C51.788 16.384 50.556 16.552 49.1 16.552H45.46V24H42.128V4.008ZM49.016 13.724C49.856 13.724 50.556 13.64 51.116 13.472C51.676 13.304 52.096 13.08 52.432 12.772C52.74 12.464 52.964 12.1 53.076 11.652C53.188 11.232 53.272 10.756 53.272 10.196C53.272 9.636 53.188 9.16 53.076 8.74C52.936 8.32 52.712 7.956 52.376 7.676C52.04 7.396 51.62 7.2 51.06 7.032C50.5 6.892 49.828 6.808 48.988 6.808H45.46V13.724H49.016ZM71.5451 19.688C71.2651 21.2 70.6211 22.376 69.6131 23.216C68.5771 24.056 67.0931 24.448 65.1891 24.448C62.8651 24.448 61.1011 23.804 59.8971 22.46C58.6931 21.116 58.1051 19.24 58.1051 16.804C58.1051 15.572 58.2731 14.452 58.6091 13.472C58.9451 12.52 59.4491 11.708 60.0651 11.036C60.6811 10.364 61.4371 9.86 62.3051 9.524C63.1731 9.188 64.1251 8.992 65.1891 8.992C66.3091 8.992 67.2611 9.188 68.1011 9.524C68.9131 9.86 69.5851 10.364 70.1451 10.98C70.6771 11.596 71.0691 12.352 71.3491 13.22C71.6011 14.088 71.7411 15.04 71.7411 16.104V17.504H61.2971C61.3251 18.848 61.6611 19.912 62.3051 20.724C62.9211 21.564 63.9011 21.956 65.1891 21.956C66.1971 21.956 66.9531 21.76 67.4571 21.368C67.9611 20.976 68.2971 20.416 68.4651 19.688H71.5451ZM68.6331 15.292C68.6331 14.116 68.3531 13.164 67.7931 12.464C67.2331 11.792 66.3371 11.428 65.1051 11.428C63.9291 11.428 63.0331 11.792 62.4171 12.492C61.8011 13.192 61.4371 14.116 61.3531 15.292H68.6331ZM73.4233 11.96V9.44H75.7193V5.52H78.8833V9.44H82.4953V11.96H78.8833V19.576C78.8833 20.332 79.0233 20.864 79.3313 21.2C79.6393 21.536 80.0873 21.704 80.7033 21.704C81.0113 21.704 81.3193 21.704 81.5993 21.648C81.8793 21.62 82.1873 21.564 82.4673 21.452L82.9433 23.832C82.0473 24.14 81.0673 24.28 80.0312 24.28C78.4073 24.28 77.2873 23.888 76.6713 23.048C76.0273 22.208 75.7193 20.976 75.7193 19.296V11.96H73.4233ZM88.7191 4.008V21.06H98.6311L98.2111 24H85.3311V4.008H88.7191ZM104.35 4.008V7.172H101.046V4.008H104.35ZM104.294 9.44V24H101.102V9.44H104.294ZM111.045 9.44V11.568C111.689 10.672 112.417 10.028 113.229 9.608C114.041 9.216 114.909 8.992 115.861 8.992C119.109 8.992 120.733 10.784 120.733 14.368V24H117.541V14.872C117.541 13.696 117.317 12.884 116.897 12.408C116.449 11.932 115.833 11.68 114.993 11.68C114.433 11.68 113.901 11.792 113.425 11.988C112.949 12.184 112.557 12.436 112.221 12.772C111.885 13.108 111.605 13.5 111.409 13.948C111.213 14.396 111.129 14.844 111.129 15.32V24H107.965V9.44H111.045ZM127.342 4.008V15.068L133.558 9.44H137.282L132.018 14.396L137.758 24H134.258L129.722 16.216L127.342 18.344V24H124.234V4.008H127.342Z" fill="white"/>
<path fill-rule="evenodd" clip-rule="evenodd" d="M9.9317 24.3352L9.93173 24.3352L9.93626 24.3387L9.93647 24.3389L9.93753 24.3397L9.93772 24.3398C10.4104 24.704 10.8744 25.0616 11.3231 25.4154C12.2339 26.1333 13.1265 26.8286 14.0108 27.3169C12.9119 28.0752 11.3951 28.2199 10.1005 27.609C9.26624 27.2153 8.68637 26.7398 8.18474 26.3285C7.80229 26.0149 7.46532 25.7386 7.09574 25.5643C6.72626 25.39 6.29893 25.3056 5.81395 25.2098C5.1774 25.0841 4.44156 24.9387 3.60692 24.5449C1.67221 23.6319 0.724827 21.2627 1.75685 19.3885C2.13029 18.7103 2.56158 18.2711 3.01075 17.9873C4.95217 20.4987 7.55029 22.5004 9.9317 24.3352ZM3.01075 17.9873C1.22873 15.6821 0 12.9475 0 9.51847C0 1.60899 8.9459 -4.00024 16.2648 3.60382L19.5178 6.85459C19.9942 7.33089 20.7666 7.33074 21.243 6.85426C21.7192 6.3778 21.719 5.60543 21.2426 5.12914L18.1003 1.9879C24.9966 -3.06074 32.5296 2.26038 32.5296 9.51847C32.5296 16.6833 27.1651 20.8163 22.5978 24.3352L22.5723 24.3549L22.5721 24.3551L22.572 24.3551C22.1063 24.714 21.6489 25.0666 21.2065 25.4154C19.5178 26.7466 17.8913 28 16.2648 28C15.5155 28 14.7662 27.734 14.0108 27.3169C14.5541 26.9419 14.9953 26.4169 15.2569 25.7591C16.0791 23.6919 15.0745 22.5101 14.375 21.687C14.122 21.3893 13.9089 21.1386 13.8364 20.9099C13.6822 20.4222 13.6794 19.8993 13.6764 19.3329C13.6741 18.8993 13.6717 18.4402 13.601 17.9519C13.4537 16.9326 12.8289 16.0029 11.8301 15.5314C10.8315 15.0603 9.71655 15.1691 8.83628 15.703C8.41459 15.9589 8.05875 16.2488 7.72267 16.5226C7.28331 16.8805 6.87771 17.2109 6.4029 17.402C6.18035 17.4915 5.85133 17.4864 5.46073 17.4804C4.75658 17.4695 3.85229 17.4556 3.01075 17.9873ZM12.9914 10.9903C12.3667 12.6972 10.8087 13.696 9.51118 13.2209C8.21372 12.7464 7.66814 10.978 8.29256 9.27103C8.91726 7.56411 10.4751 6.56566 11.7729 7.04009C13.0702 7.51489 13.6158 9.28333 12.9914 10.9903ZM4.58088 15.9432C5.93822 15.8255 6.91304 14.2831 6.75878 12.4971C6.60419 10.7116 5.37849 9.35943 4.02115 9.47645C2.66394 9.5945 1.68916 11.1372 1.84359 12.9229C1.99822 14.7084 3.22372 16.0605 4.58088 15.9432ZM18.9754 14.3128C18.0547 15.8797 16.343 16.5829 15.1517 15.8827C13.9604 15.1832 13.7407 13.3459 14.6612 11.7783C15.5817 10.2113 17.2938 9.50778 18.4851 10.2073C19.6766 10.9075 19.896 12.7448 18.9754 14.3128ZM21.5321 17.7402C20.7598 16.6181 18.937 16.5314 17.4604 17.5471C15.9836 18.5635 15.4129 20.2967 16.185 21.4191C16.9572 22.5412 18.7802 22.628 20.2567 21.6119C21.7331 20.5959 22.3042 18.8627 21.5321 17.7402Z" fill="white"/>
</svg>
